<svg viewBox="0 0 1320 742" xmlns="http://www.w3.org/2000/svg" role="img" aria-labelledby="ttl desc">
<title id="ttl">Agentic Harness - individual agents (Path B, LangGraph)</title>
<desc id="desc">The four sub-agents are expanded into individual agents. A shared supervisor band dispatches sub-tasks to each agent. Every agent is its own compiled LangGraph graph running an internal Reason-Act-Observe loop and calling its own dedicated MCP tool. .NET owns transport; Kafka is the runtime boundary; MongoDB, Qdrant and S3 are shared memory and state.</desc>
<defs>
<marker id="a" markerWidth="9" markerHeight="9" refX="7" refY="3" orient="auto"><path d="M0,0 L7,3 L0,6 Z" fill="#6b7785"/></marker>
<marker id="al" markerWidth="9" markerHeight="9" refX="7" refY="3" orient="auto"><path d="M0,0 L7,3 L0,6 Z" fill="#f59e0b"/></marker>
<style>
.grp{fill:rgba(255,255,255,0.018);stroke:#2a3340;stroke-width:1;}
.gl{fill:#8b97a5;font:600 11px -apple-system,Segoe UI,Roboto,sans-serif;letter-spacing:1.1px;}
.ex{fill:#16202c;stroke:#3a6ea5;stroke-width:1.2;}
.svc{fill:#10271d;stroke:#2ea16f;stroke-width:1.3;}
.core{fill:#102a1f;stroke:#3ddc97;stroke-width:1.9;}
.kf{fill:#1d2733;stroke:#50607a;stroke-width:1.2;}
.card{fill:#0e1f17;stroke:#2ea16f;stroke-width:1.7;}
.node{fill:#26200f;stroke:#f0a93b;stroke-width:1.4;}
.tool{fill:#16202c;stroke:#3a6ea5;stroke-width:1.3;}
.bt{fill:#e6edf3;font:600 13px -apple-system,Segoe UI,Roboto,sans-serif;text-anchor:middle;}
.bs{fill:#8b97a5;font:400 10px -apple-system,Segoe UI,Roboto,sans-serif;text-anchor:middle;}
.nt{fill:#f6d59a;font:600 11px -apple-system,Segoe UI,Roboto,sans-serif;text-anchor:middle;}
.ns{fill:#b89866;font:400 9px ui-monospace,monospace;text-anchor:middle;}
.tech{fill:#f0a93b;font:600 9px ui-monospace,Menlo,monospace;text-anchor:middle;}
.ar{stroke:#6b7785;stroke-width:1.5;fill:none;marker-end:url(#a);}
.ard{stroke:#6b7785;stroke-width:1.3;fill:none;marker-end:url(#a);stroke-dasharray:4 3;}
.lp{stroke:#f59e0b;stroke-width:2;fill:none;marker-end:url(#al);}
.el{fill:#94a3b3;font:400 9.5px sans-serif;text-anchor:middle;}
.elL{fill:#f0a93b;font:600 9px sans-serif;text-anchor:middle;}
.badge{font:700 9px -apple-system,sans-serif;text-anchor:middle;}
</style></defs>
<rect x="3" y="3" width="1314" height="736" rx="16" fill="#0f141b"/>
<text x="32" y="38" fill="#f0f6fc" font-family="-apple-system,Segoe UI,Roboto,sans-serif" font-size="21" font-weight="700">AGENTIC HARNESS &#8212; EACH AGENT AS ITS OWN GRAPH (Path B &#183; LangGraph)</text>
<text x="32" y="59" fill="#8b97a5" font-family="-apple-system,Segoe UI,Roboto,sans-serif" font-size="12">Shared supervisor dispatches sub-tasks &#183; every agent is a compiled LangGraph graph running its own Reason&#8594;Act&#8594;Observe loop &#183; amber = loop</text>
<rect x="980" y="24" width="14" height="13" rx="3" class="card"/><text x="1000" y="34" fill="#9fb0c0" font-size="10.5" font-family="sans-serif">Agent graph</text>
<rect x="1086" y="24" width="14" height="13" rx="3" class="node"/><text x="1106" y="34" fill="#9fb0c0" font-size="10.5" font-family="sans-serif">Loop node</text>
<rect x="1182" y="24" width="14" height="13" rx="3" class="tool"/><text x="1202" y="34" fill="#9fb0c0" font-size="10.5" font-family="sans-serif">Dedicated tool</text>
<rect x="32" y="70" width="1256" height="58" rx="10" class="grp"/>
<text x="46" y="86" class="gl">.NET TRANSPORT</text>
<rect x="150" y="76" width="48" height="14" rx="7" fill="#16202c" stroke="#3a6ea5"/><text x="174" y="86" fill="#7fb0e0" class="badge">.NET</text>
<rect x="46" y="94" width="150" height="28" rx="7" class="ex"/><text x="121" y="112" class="bt">UI Client &#183; React</text>
<rect x="208" y="94" width="210" height="28" rx="7" class="ex"/><text x="313" y="112" class="bt">ASP.NET BFF &#183; SignalR</text>
<rect x="430" y="94" width="160" height="28" rx="7" class="ex"/><text x="510" y="112" class="bt">Redis Backplane</text>
<text x="940" y="112" fill="#9fb0c0" font-size="10.5" font-family="sans-serif" text-anchor="middle">user_input &#9656;   &#9666; streamed results</text>
<rect x="32" y="138" width="1256" height="40" rx="8" class="kf"/>
<text x="660" y="155" fill="#cdd9e5" font-size="12" font-family="sans-serif" text-anchor="middle" font-weight="600">APACHE KAFKA &#8212; RUNTIME BOUNDARY  (.NET &#9660;&#9650; Python)</text>
<text x="660" y="170" fill="#7e8b99" font-size="9.5" font-family="sans-serif" text-anchor="middle">task_request &#183; agent_results &#183; ui_inbound_responses &#183; tool_call_event &#183; dead_letter</text>
<line x1="313" y1="122" x2="313" y2="136" class="ar"/>
<rect x="32" y="190" width="1256" height="92" rx="11" fill="rgba(46,161,111,0.05)" stroke="#2ea16f" stroke-width="1.2"/>
<text x="46" y="208" fill="#6ee7b7" font-size="12" font-weight="700" font-family="sans-serif" letter-spacing="0.8px">SHARED SUPERVISOR &amp; HARNESS SERVICES</text>
<rect x="372" y="198" width="62" height="14" rx="7" fill="#10271d" stroke="#2ea16f"/><text x="403" y="208" fill="#6ee7b7" class="badge">PYTHON</text>
<rect x="46" y="218" width="190" height="56" rx="9" class="core"/>
<text x="141" y="242" class="bt" font-size="12">Orchestrator / Router</text>
<text x="141" y="260" class="tech">LangGraph StateGraph</text>
<rect x="250" y="218" width="190" height="56" rx="9" class="svc"/>
<text x="345" y="242" class="bt" font-size="12">Planner</text>
<text x="345" y="260" class="tech">plan in state</text>
<rect x="454" y="218" width="190" height="56" rx="9" class="svc"/>
<text x="549" y="242" class="bt" font-size="12">Memory Manager</text>
<text x="549" y="260" class="tech">Mongo checkpointer</text>
<rect x="658" y="218" width="190" height="56" rx="9" class="svc"/>
<text x="753" y="242" class="bt" font-size="12">Model Gateway</text>
<text x="753" y="260" class="tech">ChatBedrockConverse</text>
<rect x="862" y="218" width="190" height="56" rx="9" class="svc"/>
<text x="957" y="242" class="bt" font-size="12">Guardrails + HITL</text>
<text x="957" y="260" class="tech">validate &#183; interrupt()</text>
<rect x="1066" y="218" width="190" height="56" rx="9" class="svc"/>
<text x="1161" y="242" class="bt" font-size="12">Observability</text>
<text x="1161" y="260" class="tech">LangSmith &#183; OTel</text>
<line x1="141" y1="274" x2="141" y2="312" class="ar"/>
<line x1="141" y1="312" x2="1110" y2="312" stroke="#6b7785" stroke-width="1.5"/>
<text x="640" y="307" class="el">dispatch sub-task &#8594; agent graph   &#183;   results &#9656; agent_results</text>
<line x1="192" y1="312" x2="192" y2="328" class="ar"/>
<rect x="48" y="330" width="288" height="300" rx="11" class="card"/>
<rect x="232" y="340" width="92" height="15" rx="7" fill="#0e1f17" stroke="#2ea16f"/><text x="278" y="351" fill="#6ee7b7" class="badge">LangGraph graph</text>
<text x="64" y="356" fill="#e6edf3" font-size="13.5" font-weight="700" font-family="-apple-system,sans-serif">Agile Master Agent</text>
<text x="64" y="373" fill="#8b97a5" font-size="10" font-family="sans-serif">persona: project management</text>
<text x="192" y="396" class="elL" font-size="9.5">internal loop</text>
<rect x="72" y="404" width="110" height="46" rx="9" class="node"/>
<text x="127" y="424" class="nt">Reason</text><text x="127" y="440" class="ns">LLM &#183; Bedrock</text>
<rect x="202" y="404" width="110" height="46" rx="9" class="node"/>
<text x="257" y="424" class="nt">Act</text><text x="257" y="440" class="ns">tool call</text>
<line x1="182" y1="420" x2="200" y2="420" class="lp"/>
<path d="M210,450 C 206,468 178,468 174,450" class="lp"/>
<text x="192" y="466" class="elL">observe</text>
<line x1="247" y1="450" x2="247" y2="490" class="lp"/>
<line x1="267" y1="490" x2="267" y2="450" class="ard"/>
<text x="287" y="476" class="el" text-anchor="start" font-size="8.5">call/result</text>
<rect x="72" y="492" width="240" height="44" rx="9" class="tool"/>
<text x="192" y="511" class="bt" font-size="12">Jira MCP</text>
<text x="192" y="526" class="bs">issue / sprint ops &#183; MCP JSON-RPC/SSE</text>
<text x="192" y="618" class="ns" font-size="8.5" fill="#7e8b99">checkpoints state &#183; recalls memory</text>
<line x1="498" y1="312" x2="498" y2="328" class="ar"/>
<rect x="354" y="330" width="288" height="300" rx="11" class="card"/>
<rect x="538" y="340" width="92" height="15" rx="7" fill="#0e1f17" stroke="#2ea16f"/><text x="584" y="351" fill="#6ee7b7" class="badge">LangGraph graph</text>
<text x="370" y="356" fill="#e6edf3" font-size="13.5" font-weight="700" font-family="-apple-system,sans-serif">Developer Agent</text>
<text x="370" y="373" fill="#8b97a5" font-size="10" font-family="sans-serif">persona: codebase &amp; PR analyst</text>
<text x="498" y="396" class="elL" font-size="9.5">internal loop</text>
<rect x="378" y="404" width="110" height="46" rx="9" class="node"/>
<text x="433" y="424" class="nt">Reason</text><text x="433" y="440" class="ns">LLM &#183; Bedrock</text>
<rect x="508" y="404" width="110" height="46" rx="9" class="node"/>
<text x="563" y="424" class="nt">Act</text><text x="563" y="440" class="ns">tool call</text>
<line x1="488" y1="420" x2="506" y2="420" class="lp"/>
<path d="M516,450 C 512,468 484,468 480,450" class="lp"/>
<text x="498" y="466" class="elL">observe</text>
<line x1="553" y1="450" x2="553" y2="490" class="lp"/>
<line x1="573" y1="490" x2="573" y2="450" class="ard"/>
<text x="593" y="476" class="el" text-anchor="start" font-size="8.5">call/result</text>
<rect x="378" y="492" width="240" height="44" rx="9" class="tool"/>
<text x="498" y="511" class="bt" font-size="12">GitHub MCP</text>
<text x="498" y="526" class="bs">repo / PR ops &#183; MCP JSON-RPC/SSE</text>
<text x="498" y="618" class="ns" font-size="8.5" fill="#7e8b99">checkpoints state &#183; recalls memory</text>
<line x1="804" y1="312" x2="804" y2="328" class="ar"/>
<rect x="660" y="330" width="288" height="300" rx="11" class="card"/>
<rect x="844" y="340" width="92" height="15" rx="7" fill="#0e1f17" stroke="#2ea16f"/><text x="890" y="351" fill="#6ee7b7" class="badge">LangGraph graph</text>
<text x="676" y="356" fill="#e6edf3" font-size="13.5" font-weight="700" font-family="-apple-system,sans-serif">Research Agent (RAG)</text>
<text x="676" y="373" fill="#8b97a5" font-size="10" font-family="sans-serif">persona: knowledge base spec.</text>
<text x="804" y="396" class="elL" font-size="9.5">internal loop</text>
<rect x="684" y="404" width="110" height="46" rx="9" class="node"/>
<text x="739" y="424" class="nt">Reason</text><text x="739" y="440" class="ns">LLM &#183; Bedrock</text>
<rect x="814" y="404" width="110" height="46" rx="9" class="node"/>
<text x="869" y="424" class="nt">Act</text><text x="869" y="440" class="ns">tool call</text>
<line x1="794" y1="420" x2="812" y2="420" class="lp"/>
<path d="M822,450 C 818,468 790,468 786,450" class="lp"/>
<text x="804" y="466" class="elL">observe</text>
<line x1="859" y1="450" x2="859" y2="490" class="lp"/>
<line x1="879" y1="490" x2="879" y2="450" class="ard"/>
<text x="899" y="476" class="el" text-anchor="start" font-size="8.5">call/result</text>
<rect x="684" y="492" width="240" height="44" rx="9" class="tool"/>
<text x="804" y="511" class="bt" font-size="12">RAG &#183; Qdrant</text>
<text x="804" y="526" class="bs">vector search &#183; MCP JSON-RPC/SSE</text>
<text x="804" y="618" class="ns" font-size="8.5" fill="#7e8b99">checkpoints state &#183; recalls memory</text>
<line x1="1110" y1="312" x2="1110" y2="328" class="ar"/>
<rect x="966" y="330" width="288" height="300" rx="11" class="card"/>
<rect x="1150" y="340" width="92" height="15" rx="7" fill="#0e1f17" stroke="#2ea16f"/><text x="1196" y="351" fill="#6ee7b7" class="badge">LangGraph graph</text>
<text x="982" y="356" fill="#e6edf3" font-size="13.5" font-weight="700" font-family="-apple-system,sans-serif">Doc Analyst Agent</text>
<text x="982" y="373" fill="#8b97a5" font-size="10" font-family="sans-serif">persona: unstructured files</text>
<text x="1110" y="396" class="elL" font-size="9.5">internal loop</text>
<rect x="990" y="404" width="110" height="46" rx="9" class="node"/>
<text x="1045" y="424" class="nt">Reason</text><text x="1045" y="440" class="ns">LLM &#183; Bedrock</text>
<rect x="1120" y="404" width="110" height="46" rx="9" class="node"/>
<text x="1175" y="424" class="nt">Act</text><text x="1175" y="440" class="ns">tool call</text>
<line x1="1100" y1="420" x2="1118" y2="420" class="lp"/>
<path d="M1128,450 C 1124,468 1096,468 1092,450" class="lp"/>
<text x="1110" y="466" class="elL">observe</text>
<line x1="1165" y1="450" x2="1165" y2="490" class="lp"/>
<line x1="1185" y1="490" x2="1185" y2="450" class="ard"/>
<text x="1205" y="476" class="el" text-anchor="start" font-size="8.5">call/result</text>
<rect x="990" y="492" width="240" height="44" rx="9" class="tool"/>
<text x="1110" y="511" class="bt" font-size="12">Custom Doc MCP</text>
<text x="1110" y="526" class="bs">files + S3 &#183; MCP JSON-RPC/SSE</text>
<text x="1110" y="618" class="ns" font-size="8.5" fill="#7e8b99">checkpoints state &#183; recalls memory</text>
<rect x="32" y="648" width="1256" height="84" rx="10" class="grp"/>
<text x="46" y="666" class="gl">SHARED MEMORY &amp; STATE</text>
<rect x="46" y="674" width="250" height="44" rx="8" class="ex"/>
<text x="171" y="694" class="bt" font-size="12">MongoDB</text>
<text x="171" y="709" class="bs">working/thread &#183; LangGraph checkpointer</text>
<rect x="314" y="674" width="250" height="44" rx="8" class="ex"/>
<text x="439" y="694" class="bt" font-size="12">Qdrant</text>
<text x="439" y="709" class="bs">long-term semantic &#183; langchain-qdrant</text>
<rect x="582" y="674" width="230" height="44" rx="8" class="ex"/>
<text x="697" y="694" class="bt" font-size="12">Amazon S3</text>
<text x="697" y="709" class="bs">artifacts / raw files &#183; presigned</text>
<text x="1010" y="692" fill="#8b97a5" font-size="10" font-family="sans-serif" text-anchor="middle">All agent graphs share these via the</text>
<text x="1010" y="708" fill="#8b97a5" font-size="10" font-family="sans-serif" text-anchor="middle">Memory Manager (checkpoint + recall)</text>
</svg>